<?xml version="1.0" encoding="UTF-8"?>
<svg width="102px" height="187px" viewBox="0 0 102 187" version="1.1" xmlns="http://www.w3.org/2000/svg" xmlns:xlink="http://www.w3.org/1999/xlink">
    <!-- Generator: Sketch 53 (72520) - https://sketchapp.com -->
    <title>2x2/ortega/pbl/ub+db</title>
    <desc>Created with Sketch.</desc>
    <g id="2x2/ortega/pbl/ub+db" stroke="none" stroke-width="1" fill="none" fill-rule="evenodd">
        <g id="2x2/2D" transform="translate(0.000000, 85.000000)">
            <g id="2x2/Sides/Line" stroke-width="1">
                <g id="Front" transform="translate(22.000000, 92.000000)">
                    <path d="M58,0.5 L34,0.5" id="FR"></path>
                    <path d="M24,0.5 L0,0.5" id="FL"></path>
                </g>
                <g id="Right" transform="translate(92.000000, 22.000000)">
                    <path d="M13,46.5 L-11,46.5" id="RF" transform="translate(1.000000, 46.500000) rotate(90.000000) translate(-1.000000, -46.500000) "></path>
                    <path d="M13,12.5 L-11,12.5" id="RB" transform="translate(1.000000, 12.500000) rotate(90.000000) translate(-1.000000, -12.500000) "></path>
                </g>
                <g id="Left" transform="translate(8.000000, 22.000000)">
                    <path d="M13,46.5 L-11,46.5" id="LF" transform="translate(1.000000, 46.500000) rotate(90.000000) translate(-1.000000, -46.500000) "></path>
                    <path d="M13,12.5 L-11,12.5" id="LB" transform="translate(1.000000, 12.500000) rotate(90.000000) translate(-1.000000, -12.500000) "></path>
                </g>
                <g id="Back" transform="translate(22.000000, 9.000000)">
                    <path d="M58,0.5 L34,0.5" id="BR"></path>
                    <path d="M24,0.5 L0,0.5" id="BL"></path>
                </g>
            </g>
            <g id="2x2/Face" fill="#D8D8D8" stroke="#000000" stroke-width="2">
                <rect id="FR" x="51" y="51" width="34" height="34"></rect>
                <rect id="FL" x="17" y="51" width="34" height="34"></rect>
                <rect id="BR" x="51" y="17" width="34" height="34"></rect>
                <rect id="BL" x="17" y="17" width="34" height="34"></rect>
            </g>
        </g>
        <g id="2x2/2D">
            <g id="2x2/Sides/Line" stroke-width="1">
                <g id="Front" transform="translate(22.000000, 92.000000)">
                    <path d="M58,0.5 L34,0.5" id="FR"></path>
                    <path d="M24,0.5 L0,0.5" id="FL"></path>
                </g>
                <g id="Right" transform="translate(92.000000, 22.000000)">
                    <path d="M13,46.5 L-11,46.5" id="RF" transform="translate(1.000000, 46.500000) rotate(90.000000) translate(-1.000000, -46.500000) "></path>
                    <path d="M13,12.5 L-11,12.5" id="RB" transform="translate(1.000000, 12.500000) rotate(90.000000) translate(-1.000000, -12.500000) "></path>
                </g>
                <g id="Left" transform="translate(8.000000, 22.000000)">
                    <path d="M13,46.5 L-11,46.5" id="LF" transform="translate(1.000000, 46.500000) rotate(90.000000) translate(-1.000000, -46.500000) "></path>
                    <path d="M13,12.5 L-11,12.5" id="LB" transform="translate(1.000000, 12.500000) rotate(90.000000) translate(-1.000000, -12.500000) "></path>
                </g>
                <g id="Back" transform="translate(22.000000, 9.000000)">
                    <path d="M58,0.5 L34,0.5" id="BR"></path>
                    <path d="M24,0.5 L0,0.5" id="BL"></path>
                </g>
            </g>
            <g id="2x2/Face" fill="#D8D8D8" stroke="#000000" stroke-width="2">
                <rect id="FR" x="51" y="51" width="34" height="34"></rect>
                <rect id="FL" x="17" y="51" width="34" height="34"></rect>
                <rect id="BR" x="51" y="17" width="34" height="34"></rect>
                <rect id="BL" x="17" y="17" width="34" height="34"></rect>
            </g>
        </g>
        <g id="Direction/Line" transform="translate(34.000000, 29.000000)" stroke="#2196F3" stroke-width="4">
            <g id="Direction/Arrowhead/Open" transform="translate(24.000000, 0.000000)">
                <polyline id="Path" transform="translate(2.302500, 5.302500) rotate(-45.000000) translate(-2.302500, -5.302500) " points="-3 10.605 7.605 10.605 7.605 0"></polyline>
            </g>
            <path d="M-2.84217094e-14,5 L34,5" id="Line"></path>
            <g id="Direction/Arrowhead/Open" transform="translate(5.000000, 5.000000) scale(-1, 1) translate(-5.000000, -5.000000) ">
                <polyline id="Path" transform="translate(2.302500, 5.302500) rotate(-45.000000) translate(-2.302500, -5.302500) " points="-3 10.605 7.605 10.605 7.605 0"></polyline>
            </g>
        </g>
        <g id="Direction/Line" transform="translate(34.000000, 114.000000)" stroke="#2196F3" stroke-width="4">
            <g id="Direction/Arrowhead/Open" transform="translate(24.000000, 0.000000)">
                <polyline id="Path" transform="translate(2.302500, 5.302500) rotate(-45.000000) translate(-2.302500, -5.302500) " points="-3 10.605 7.605 10.605 7.605 0"></polyline>
            </g>
            <path d="M-2.84217094e-14,5 L34,5" id="Line"></path>
            <g id="Direction/Arrowhead/Open" transform="translate(5.000000, 5.000000) scale(-1, 1) translate(-5.000000, -5.000000) ">
                <polyline id="Path" transform="translate(2.302500, 5.302500) rotate(-45.000000) translate(-2.302500, -5.302500) " points="-3 10.605 7.605 10.605 7.605 0"></polyline>
            </g>
        </g>
    </g>
</svg>