<?xml version="1.0" encoding="UTF-8"?>
<svg width="102px" height="102px" viewBox="0 0 102 102" version="1.1" xmlns="http://www.w3.org/2000/svg" xmlns:xlink="http://www.w3.org/1999/xlink">
    <!-- Generator: Sketch Beta 53 (71998) - https://sketchapp.com -->
    <title>2x2x2/intermediate/oll/sune</title>
    <desc>Created with Sketch Beta.</desc>
    <g id="2x2x2/intermediate/oll/sune" stroke="none" stroke-width="1" fill="none" fill-rule="evenodd">
        <g id="2x2x2-Flat">
            <g id="2x2x2/Flat/Sides/Line" stroke-width="1">
                <g id="Front" transform="translate(22.000000, 92.000000)">
                    <path d="M58,0.5 L34,0.5" id="FR" stroke="#4A90E2" stroke-width="4" stroke-linecap="square"></path>
                    <path d="M24,0.5 L0,0.5" id="FL"></path>
                </g>
                <g id="Right" transform="translate(92.000000, 22.000000)">
                    <path d="M13,46.5 L-11,46.5" id="RF" transform="translate(1.000000, 46.500000) rotate(90.000000) translate(-1.000000, -46.500000) "></path>
                    <path d="M13,12.5 L-11,12.5" id="RB" stroke="#4A90E2" stroke-width="4" stroke-linecap="square" transform="translate(1.000000, 12.500000) rotate(90.000000) translate(-1.000000, -12.500000) "></path>
                </g>
                <g id="Left" transform="translate(8.000000, 22.000000)">
                    <path d="M13,46.5 L-11,46.5" id="LF" transform="translate(1.000000, 46.500000) rotate(90.000000) translate(-1.000000, -46.500000) "></path>
                    <path d="M13,12.5 L-11,12.5" id="LB" transform="translate(1.000000, 12.500000) rotate(90.000000) translate(-1.000000, -12.500000) "></path>
                </g>
                <g id="Back" transform="translate(22.000000, 9.000000)">
                    <path d="M58,0.5 L34,0.5" id="BR"></path>
                    <path d="M24,0.5 L0,0.5" id="BL" stroke="#4A90E2" stroke-width="4" stroke-linecap="square"></path>
                </g>
            </g>
            <g id="2x2x2/Flat/Face" stroke="#000000" stroke-width="2">
                <rect id="FR" fill="#D8D8D8" x="51" y="51" width="34" height="34"></rect>
                <rect id="FL" fill="#4A90E2" x="17" y="51" width="34" height="34"></rect>
                <rect id="BR" fill="#D8D8D8" x="51" y="17" width="34" height="34"></rect>
                <rect id="BL" fill="#D8D8D8" x="17" y="17" width="34" height="34"></rect>
            </g>
        </g>
    </g>
</svg>