<?xml version="1.0" encoding="UTF-8"?>
<svg width="120px" height="120px" viewBox="0 0 120 120" version="1.1" xmlns="http://www.w3.org/2000/svg" xmlns:xlink="http://www.w3.org/1999/xlink">
    <!-- Generator: Sketch 52.6 (67491) - http://www.bohemiancoding.com/sketch -->
    <title>logo</title>
    <desc>Created with Sketch.</desc>
    <g id="logo" stroke="none" stroke-width="1" fill="none" fill-rule="evenodd">
        <path d="M0,0 L0,104.001 C0,112.836 7.164,120 16,120 L104,120 C112.837,120 120,112.836 120,104.001 L120,0 L0,0 Z" id="Ribbon" fill="#EF3829" fill-rule="nonzero"></path>
        <path d="M16,120 L16,112 L36,112 C38.208,112 40,110.209 40,108 C40,105.792 38.209,103.999 36,103.999 L16,103.999 L16,96 L36,96 C42.616,96 48,101.384 48,108 C48,114.616 42.616,120 36,120 L16,120 Z M56,120 L56,94.002 C56,86.27 62.267,80.001 70,80.001 C77.733,80.001 84,86.269 84,94.002 L84,120 L76,120 L76,94.002 C76,90.692 73.308,88.001 70,88.001 C66.692,88.001 64,90.692 64,94.001 L64,120 L56,120 Z M96,120 L96,94.002 C96,90.692 93.308,88.002 90,88.002 C89.172,88.002 88.383,88.169 87.666,88.475 L84.786,81.016 C86.398,80.367 88.155,80.001 90,80.001 C97.732,80.001 104,86.269 104,94.002 L104,120 L96,120 Z M47.999,88.001 L28,88.001 C25.792,88.001 23.999,89.791 23.999,92.001 L16,92.001 C16,85.384 21.384,80.001 28,80.001 L47.999,80.001 L47.999,88.001 Z" id="SM" fill="#FFFFFF" fill-rule="nonzero"></path>
    </g>
</svg>