<?xml version="1.0" encoding="UTF-8"?>
<svg width="136px" height="136px" viewBox="0 0 136 136" version="1.1" xmlns="http://www.w3.org/2000/svg" xmlns:xlink="http://www.w3.org/1999/xlink">
    <!-- Generator: Sketch Beta 53 (71998) - https://sketchapp.com -->
    <title>3x3x3/roux/lr/e</title>
    <desc>Created with Sketch Beta.</desc>
    <g id="3x3x3/roux/lr/e" stroke="none" stroke-width="1" fill="none" fill-rule="evenodd">
        <g id="3x3x3/3D">
            <g id="Front" transform="translate(8.000000, 25.845700)">
                <g id="Bottom" transform="translate(0.000000, 46.693400)">
                    <polygon id="FBR" fill="#F44336" points="59.5 24.8115 59.5 51.8115 40 42.6265 40 16.6795"></polygon>
                    <polygon id="FBM" fill="#D8D8D8" points="40 16.6797 40 42.6267 20 33.2067 20 8.3397"></polygon>
                    <polygon id="FBL" fill="#F44336" points="0 -5.68434189e-14 20 8.34 20 33.207 0 23.787"></polygon>
                </g>
                <g id="Top" transform="translate(0.000000, 0.000000)">
                    <g id="Equator" transform="translate(0.000000, 23.494400)">
                        <polygon id="FER" fill="#F44336" points="59.5 21.6775 59.5 48.0105 40 39.8785 40 14.5735"></polygon>
                        <polygon id="FEM" fill="#D8D8D8" points="40 14.573 40 39.879 20 31.539 20 7.286"></polygon>
                        <polygon id="FEL" fill="#F44336" points="0 23.199 0 0 20 7.286 20 31.539"></polygon>
                    </g>
                    <polygon id="FTR" fill="#F44336" points="59.5 18.5049 59.5 45.1719 40 38.0669 40 12.4409"></polygon>
                    <polygon id="FTM" fill="#4CAF50" points="20 6.2207 40 12.4407 40 38.0677 20 30.7807"></polygon>
                    <polygon id="FTL" fill="#F44336" points="0 0 20 6.221 20 30.78 0 23.494"></polygon>
                </g>
            </g>
            <g id="Right" transform="translate(67.500000, 25.535200)">
                <g id="Bottom" transform="translate(0.000000, 46.586900)" fill="#4CAF50">
                    <polygon id="RBB" points="60.5 0 60.5 23.733 40.5 33.153 40.5 8.51"></polygon>
                    <polygon id="RBM" points="40.5 8.5098 40.5 33.1538 20.5 42.5728 20.5 16.6798"></polygon>
                    <polygon id="RBF" points="0 25.2285 20.5 16.6795 20.5 42.5735 0 52.2285"></polygon>
                </g>
                <g id="Equator" transform="translate(0.000000, 23.440400)" fill="#4CAF50">
                    <polygon id="REB" points="60.5 0 60.5 23.146 40.5 31.656 40.5 7.286"></polygon>
                    <polygon id="REM" points="40.5 7.2862 40.5 31.6562 20.5 39.8262 20.5 14.5732"></polygon>
                    <polygon id="REF" points="0 22.042 20.5 14.573 20.5 39.826 0 48.375"></polygon>
                </g>
                <g id="Top">
                    <polygon id="RTB" fill="#4CAF50" points="60.5 5.68434189e-14 60.5 23.44 40.5 30.727 40.5 6.22"></polygon>
                    <polygon id="RTM" fill="#2196F3" points="40.5 30.7266 20.5 38.0136 20.5 12.4396 40.5 6.2196"></polygon>
                    <polygon id="RTF" fill="#4CAF50" points="0 18.8154 20.5 12.4394 20.5 38.0134 0 45.4824"></polygon>
                </g>
            </g>
            <g id="Top" transform="translate(8.000000, 11.029300)">
                <g id="Front" transform="translate(0.000000, 9.755400)" fill="#FFEB3B">
                    <polygon id="TFR" points="40 17.5015 59.5 23.5655 80 17.1895 60.501 11.6045"></polygon>
                    <polygon id="TFM" points="40 17.5015 60.501 11.6045 40 5.7935 20 11.2815"></polygon>
                    <polygon id="TFL" points="0 5.061 20.67 -3.55271368e-14 40 5.793 20 11.282"></polygon>
                </g>
                <g id="Section" transform="translate(20.669900, 4.945300)">
                    <polygon id="TSR" fill="#FFEB3B" points="60.0327 10.6036 79.3297 15.7806 59.3297 21.9996 39.8317 16.4146"></polygon>
                    <polygon id="TSM" fill="#FFEB3B" points="19.3301 10.6036 39.8311 16.4146 60.0331 10.6036 39.8311 5.3366"></polygon>
                    <polygon id="TSL" fill="#D8D8D8" points="19.645 -3.55271368e-14 39.832 5.337 19.33 10.604 2.13162821e-14 4.811"></polygon>
                </g>
                <g id="Back" transform="translate(40.315000, 0.000000)">
                    <polygon id="TBR" fill="#FFEB3B" points="59.685 9.6289 79.685 14.5059 59.685 20.7259 40.388 15.5489"></polygon>
                    <polygon id="TBM" fill="#D8D8D8" points="59.685 9.6289 40.388 15.5489 20.186 10.2819 39.685 4.7509"></polygon>
                    <polygon id="TBL" fill="#FFEB3B" points="39.685 4.751 20.186 10.282 0 4.945 20.2 -4.26325641e-14"></polygon>
                </g>
            </g>
            <g id="Linework" transform="translate(8.000000, 11.029200)" stroke="#231F20">
                <path d="M59.5,33.3214 L59.5,113.3214" id="Stroke-28" stroke-width="2"></path>
                <path d="M40,27.257 L40,104.137" id="Stroke-30" stroke-width="2"></path>
                <path d="M20,21.0372 L20,94.7172" id="Stroke-31" stroke-width="2"></path>
                <path d="M80,26.9454 L80,103.6664" id="Stroke-32" stroke-width="2"></path>
                <path d="M100,20.7257 L100,94.2467" id="Stroke-33" stroke-width="2"></path>
                <polyline id="Stroke-34" stroke-width="2" points="0 14.8165 59.5 33.3215 120 14.5055"></polyline>
                <polyline id="Stroke-36" stroke-width="2" points="0 38.3107 59.5 59.9887 120 37.9467"></polyline>
                <polyline id="Stroke-38" stroke-width="2" points="0 61.5099 59.5 86.3219 120 61.0929"></polyline>
                <path d="M40.3149,4.9454 L99.9999,20.7254" id="Stroke-41" stroke-width="2"></path>
                <path d="M20,9.756 L80,26.945" id="Stroke-42" stroke-width="2"></path>
                <polygon id="Stroke-43" stroke-width="2" points="120 14.506 120 84.826 59.5 113.321 0 85.297 0 14.817 60.515 1.42108547e-14"></polygon>
                <path d="M80.7026,4.923 L19.9996,21.037" id="Stroke-45" stroke-width="2"></path>
                <path d="M100.6943,9.798 L40.0003,27.257" id="Stroke-46" stroke-width="2"></path>
            </g>
        </g>
    </g>
</svg>