<?xml version="1.0" encoding="UTF-8"?>
<svg width="136px" height="136px" viewBox="0 0 136 136" version="1.1" xmlns="http://www.w3.org/2000/svg" xmlns:xlink="http://www.w3.org/1999/xlink">
    <!-- Generator: Sketch Beta 53 (71998) - https://sketchapp.com -->
    <title>3x3x3/roux/lr/f</title>
    <desc>Created with Sketch Beta.</desc>
    <g id="3x3x3/roux/lr/f" stroke="none" stroke-width="1" fill="none" fill-rule="evenodd">
        <g id="3x3x3/3D">
            <g id="Front" transform="translate(8.000000, 25.655658)">
                <g id="Bottom" transform="translate(0.000000, 46.350066)">
                    <polygon id="FBR" fill="#F44336" points="59.5 24.6290625 59.5 51.4305331 40 42.3130699 40 16.5568566"></polygon>
                    <polygon id="FBM" fill="#D8D8D8" points="40 16.5570551 40 42.3132684 20 32.9625331 20 8.27837868"></polygon>
                    <polygon id="FBL" fill="#F44336" points="0 -5.68434189e-14 20 8.27867647 20 32.9628309 0 23.6120956"></polygon>
                </g>
                <g id="Top" transform="translate(0.000000, 0.000000)">
                    <g id="Equator" transform="translate(0.000000, 23.321647)">
                        <polygon id="FER" fill="#F44336" points="59.5 21.5181066 59.5 47.6574816 40 39.5852757 40 14.4663419"></polygon>
                        <polygon id="FEM" fill="#D8D8D8" points="40 14.4658456 40 39.5857721 20 31.3070956 20 7.23242647"></polygon>
                        <polygon id="FEL" fill="#F44336" points="0 23.0284191 0 0 20 7.23242647 20 31.3070956"></polygon>
                    </g>
                    <polygon id="FTR" fill="#F44336" points="59.5 18.3688346 59.5 44.8397537 40 37.7869963 40 12.3494228"></polygon>
                    <polygon id="FTM" fill="#2196F3" points="20 6.17495956 40 12.3492243 40 37.7877904 20 30.5543713"></polygon>
                    <polygon id="FTL" fill="#F44336" points="0 0 20 6.17525735 20 30.5536765 0 23.32125"></polygon>
                </g>
            </g>
            <g id="Right" transform="translate(67.500000, 25.347441)">
                <g id="Bottom" transform="translate(0.000000, 46.244349)" fill="#4CAF50">
                    <polygon id="RBB" points="60.5 0 60.5 23.5584926 40.5 32.9092279 40.5 8.44742647"></polygon>
                    <polygon id="RBM" points="40.5 8.44722794 40.5 32.9100221 20.5 42.2597647 20.5 16.5571544"></polygon>
                    <polygon id="RBF" points="0 25.0429963 20.5 16.5568566 20.5 42.2604596 0 51.8444669"></polygon>
                </g>
                <g id="Equator" transform="translate(0.000000, 23.268044)" fill="#4CAF50">
                    <polygon id="REB" points="60.5 0 60.5 22.9758088 40.5 31.4232353 40.5 7.23242647"></polygon>
                    <polygon id="REM" points="40.5 7.232625 40.5 31.4234338 20.5 39.5333603 20.5 14.4660441"></polygon>
                    <polygon id="REF" points="0 21.8799265 20.5 14.4658456 20.5 39.5331618 0 48.0193015"></polygon>
                </g>
                <g id="Top">
                    <polygon id="RTB" fill="#4CAF50" points="60.5 5.68434189e-14 60.5 23.2676471 40.5 30.5010662 40.5 6.17426471"></polygon>
                    <polygon id="RTM" fill="#D8D8D8" points="40.5 30.5006691 20.5 37.7340882 20.5 12.3481324 40.5 6.17386765"></polygon>
                    <polygon id="RTF" fill="#4CAF50" points="0 18.6770515 20.5 12.3479338 20.5 37.7338897 0 45.1479706"></polygon>
                </g>
            </g>
            <g id="Top" transform="translate(8.000000, 10.948202)">
                <g id="Front" transform="translate(0.000000, 9.683669)" fill="#FFEB3B">
                    <polygon id="TFR" points="40 17.3728125 59.5 23.3922243 80 17.0631066 60.501 11.5191728"></polygon>
                    <polygon id="TFM" points="40 17.3728125 60.501 11.5191728 40 5.75090074 20 11.1985478"></polygon>
                    <polygon id="TFL" points="0 5.02378676 20.67 -3.55271368e-14 40 5.75040441 20 11.1990441"></polygon>
                </g>
                <g id="Section" transform="translate(20.669900, 4.908937)">
                    <polygon id="TSR" fill="#D8D8D8" points="60.0327 10.5256324 79.3297 15.6645662 59.3297 21.8378382 39.8317 16.2939044"></polygon>
                    <polygon id="TSM" fill="#FFEB3B" points="19.3301 10.5256324 39.8311 16.2939044 60.0331 10.5256324 39.8311 5.29736029"></polygon>
                    <polygon id="TSL" fill="#FFEB3B" points="19.645 -3.55271368e-14 39.832 5.29775735 19.33 10.5260294 2.13162821e-14 4.775625"></polygon>
                </g>
                <g id="Back" transform="translate(40.315000, 0.000000)">
                    <polygon id="TBR" fill="#FFEB3B" points="59.685 9.55809926 79.685 14.399239 59.685 20.5735037 40.388 15.4345699"></polygon>
                    <polygon id="TBM" fill="#D8D8D8" points="59.685 9.55809926 40.388 15.4345699 20.186 10.2062978 39.685 4.71596691"></polygon>
                    <polygon id="TBL" fill="#FFEB3B" points="39.685 4.71606618 20.186 10.2063971 0 4.90863971 20.2 -4.26325641e-14"></polygon>
                </g>
            </g>
            <g id="Linework" transform="translate(8.000000, 10.948103)" stroke="#231F20">
                <path d="M59.5,33.0763897 L59.5,112.488154" id="Stroke-28" stroke-width="2"></path>
                <path d="M40,27.0565809 L40,103.371287" id="Stroke-30" stroke-width="2"></path>
                <path d="M20,20.8825147 L20,94.02075" id="Stroke-31" stroke-width="2"></path>
                <path d="M80,26.7472721 L80,102.904147" id="Stroke-32" stroke-width="2"></path>
                <path d="M100,20.5733051 L100,93.5537096" id="Stroke-33" stroke-width="2"></path>
                <polyline id="Stroke-34" stroke-width="2" points="0 14.7075551 59.5 33.076489 120 14.3988419"></polyline>
                <polyline id="Stroke-36" stroke-width="2" points="0 38.0290037 59.5 59.5476066 120 37.6676801"></polyline>
                <polyline id="Stroke-38" stroke-width="2" points="0 61.0576213 59.5 85.6871801 120 60.6436875"></polyline>
                <path d="M40.3149,4.90903676 L99.9999,20.5730074" id="Stroke-41" stroke-width="2"></path>
                <path d="M20,9.68426471 L80,26.746875" id="Stroke-42" stroke-width="2"></path>
                <polygon id="Stroke-43" stroke-width="2" points="120 14.3993382 120 84.2022794 59.5 112.487757 0 84.6698162 0 14.7080515 60.515 1.42108547e-14"></polygon>
                <path d="M80.7026,4.88680147 L19.9996,20.8823162" id="Stroke-45" stroke-width="2"></path>
                <path d="M100.6943,9.72595588 L40.0003,27.0565809" id="Stroke-46" stroke-width="2"></path>
            </g>
        </g>
    </g>
</svg>